<?xml version="1.0" encoding="utf-8"?>
<!-- Generator: Adobe Illustrator 16.0.0, SVG Export Plug-In . SVG Version: 6.00 Build 0)  -->
<!DOCTYPE svg PUBLIC "-//W3C//DTD SVG 1.1//EN" "http://www.w3.org/Graphics/SVG/1.1/DTD/svg11.dtd">
<svg version="1.1" id="Layer_6" xmlns="http://www.w3.org/2000/svg" xmlns:xlink="http://www.w3.org/1999/xlink" x="0px" y="0px"
	 width="500px" height="500px" viewBox="0 -10 500 500" enable-background="new 0 0 500 500" xml:space="preserve">
<g id="Layer_10">
	<g>
		<rect x="45.5" y="34.5" fill="#FFFFFF" stroke="#000000" stroke-width="3" stroke-miterlimit="10" width="407" height="407"/>
		<line fill="#FFFFFF" stroke="#000000" stroke-width="3" stroke-miterlimit="10" x1="46" y1="70.5" x2="453" y2="70.5"/>
		<line fill="#FFFFFF" stroke="#000000" stroke-width="3" stroke-miterlimit="10" x1="46" y1="108.5" x2="453" y2="108.5"/>
		<line fill="#FFFFFF" stroke="#000000" stroke-width="3" stroke-miterlimit="10" x1="46" y1="145.5" x2="453" y2="145.5"/>
		<line fill="#FFFFFF" stroke="#000000" stroke-width="3" stroke-miterlimit="10" x1="46" y1="181.5" x2="453" y2="181.5"/>
		<line fill="#FFFFFF" stroke="#000000" stroke-width="3" stroke-miterlimit="10" x1="46" y1="218.5" x2="453" y2="218.5"/>
		<line fill="#FFFFFF" stroke="#000000" stroke-width="3" stroke-miterlimit="10" x1="46" y1="255.5" x2="453" y2="255.5"/>
		<line fill="#FFFFFF" stroke="#000000" stroke-width="3" stroke-miterlimit="10" x1="46" y1="293.5" x2="453" y2="293.5"/>
		<line fill="#FFFFFF" stroke="#000000" stroke-width="3" stroke-miterlimit="10" x1="46" y1="329.5" x2="453" y2="329.5"/>
		<line fill="#FFFFFF" stroke="#000000" stroke-width="3" stroke-miterlimit="10" x1="46" y1="366.5" x2="453" y2="366.5"/>
		<line fill="#FFFFFF" stroke="#000000" stroke-width="3" stroke-miterlimit="10" x1="46" y1="403.5" x2="453" y2="403.5"/>
		<line fill="#FFFFFF" stroke="#000000" stroke-width="3" stroke-miterlimit="10" x1="416.5" y1="441" x2="416.5" y2="34"/>
		<line fill="#FFFFFF" stroke="#000000" stroke-width="3" stroke-miterlimit="10" x1="378.5" y1="441" x2="378.5" y2="34"/>
		<line fill="#FFFFFF" stroke="#000000" stroke-width="3" stroke-miterlimit="10" x1="341.5" y1="441" x2="341.5" y2="34"/>
		<line fill="#FFFFFF" stroke="#000000" stroke-width="3" stroke-miterlimit="10" x1="305.5" y1="441" x2="305.5" y2="34"/>
		<line fill="#FFFFFF" stroke="#000000" stroke-width="3" stroke-miterlimit="10" x1="268.5" y1="441" x2="268.5" y2="34"/>
		<line fill="#FFFFFF" stroke="#000000" stroke-width="3" stroke-miterlimit="10" x1="231.5" y1="441" x2="231.5" y2="34"/>
		<line fill="#FFFFFF" stroke="#000000" stroke-width="3" stroke-miterlimit="10" x1="193.5" y1="441" x2="193.5" y2="34"/>
		<line fill="#FFFFFF" stroke="#000000" stroke-width="3" stroke-miterlimit="10" x1="157.5" y1="441" x2="157.5" y2="34"/>
		<line fill="#FFFFFF" stroke="#000000" stroke-width="3" stroke-miterlimit="10" x1="120.5" y1="441" x2="120.5" y2="34"/>
		<line fill="#FFFFFF" stroke="#000000" stroke-width="3" stroke-miterlimit="10" x1="83.5" y1="441" x2="83.5" y2="34"/>
	</g>
</g>
<path stroke="#000000" stroke-miterlimit="10" d="M249.399,368.406c0,0-50.829-0.369-69.781-8.721c0,0-5.23-1.703-4.799-9.257
	c0,0-0.298-3.703-3.835-6.122s-25.242-13.908-36.675-43.545c0,0-0.959-2.045-2.868-2.793s-17.177-6.646-24.246-17.183
	S97.414,252,93.332,231.375c0,0-3.913-24.165-22.623-54.208c0,0-8.364-4.618-8.162-6.705s8.334,2.978,13.456-9.867
	c0,0,0.087-3.109,5.075,0s21.13,14.425,32.561,33.385c0,0,7.258,13.323,14.56,19.671c0,0,4.102,3.663,8.202,3.693
	c0,0,3.01,0.609,4.646-1.612c0,0,11.391-21.025,31.642-35.097c0,0,5.26-2.906,4.656-7.513c0,0-2.329-5.878,1.601-7.5
	c0,0,5.75-1.985,16.215-1.304c0,0,27.53-4.729,39.234-4.548c0,0,3.735,0.305,3.922-3.225c0,0-5.88-26.17-6.286-30.92
	c0,0-1.458-4.201,3.939-4.146l31.034,0.565c0,0,4.75-0.966,3.897,3.417s-5.976,23.268-6.395,30.418c0,0-1.708,4.2,5.08,4.622
	s24.037,1.314,43.663,5.032c0,0,9.376-0.353,9.751,1.035c0,0,2.311,1.889-0.19,5.369c0,0-0.935,4.064,1.108,7.308
	c2.61,2.669,8.559,6.555,11.258,10.343c0,0,2.307,1.571,4.539-1.189c0,0,17.123-26.662,46.204-26.092
	c0,0,42.081-2.858,57.581,48.418c0,0,6.441,26.54-16.029,53.533s-47.547,35.896-65.634,38.757l-9.212,1.33
	c0,0-1.585-0.307-2.593,1.838s-11.491,26.913-37.189,40.394c0,0-2.594,1.688-2.843,4.495c0,0,1.233,7.377-5.037,9.593
	C304.963,360.663,297.364,367.584,249.399,368.406z"/>
<path fill="#FFFFFF" stroke="#000000" stroke-miterlimit="10" d="M360.015,241.949c0,0-2.367-18.02-9.519-30.715
	c0,0-0.929-5.317,1.643-12.941c0,0,5.611-15.792,25.71-20.015c17.061-3.585,37.152,7.431,45.178,30.106
	c8.024,22.675-3.087,39.291-7.346,44.165c-4.261,4.873-26.598,24.488-42.638,25.696c-16.04,1.205-13.697-1.972-13.4-5.685
	C359.94,268.847,361.458,255.636,360.015,241.949z"/>
<g>
	<rect x="45.5" y="34.5" fill="none" stroke="#000000" stroke-width="3" stroke-miterlimit="10" width="407" height="407"/>
	<line fill="none" stroke="#000000" stroke-width="3" stroke-miterlimit="10" x1="46" y1="70.5" x2="453" y2="70.5"/>
	<line fill="none" stroke="#000000" stroke-width="3" stroke-miterlimit="10" x1="46" y1="108.5" x2="453" y2="108.5"/>
	<line fill="none" stroke="#000000" stroke-width="3" stroke-miterlimit="10" x1="46" y1="145.5" x2="453" y2="145.5"/>
	<line fill="none" stroke="#000000" stroke-width="3" stroke-miterlimit="10" x1="46" y1="181.5" x2="453" y2="181.5"/>
	<line fill="none" stroke="#000000" stroke-width="3" stroke-miterlimit="10" x1="46" y1="218.5" x2="453" y2="218.5"/>
	<line fill="none" stroke="#000000" stroke-width="3" stroke-miterlimit="10" x1="46" y1="255.5" x2="453" y2="255.5"/>
	<line fill="none" stroke="#000000" stroke-width="3" stroke-miterlimit="10" x1="46" y1="293.5" x2="453" y2="293.5"/>
	<line fill="none" stroke="#000000" stroke-width="3" stroke-miterlimit="10" x1="46" y1="329.5" x2="453" y2="329.5"/>
	<line fill="none" stroke="#000000" stroke-width="3" stroke-miterlimit="10" x1="46" y1="366.5" x2="453" y2="366.5"/>
	<line fill="none" stroke="#000000" stroke-width="3" stroke-miterlimit="10" x1="46" y1="403.5" x2="453" y2="403.5"/>
	<line fill="none" stroke="#000000" stroke-width="3" stroke-miterlimit="10" x1="416.5" y1="441" x2="416.5" y2="34"/>
	<line fill="none" stroke="#000000" stroke-width="3" stroke-miterlimit="10" x1="378.5" y1="441" x2="378.5" y2="34"/>
	<line fill="none" stroke="#000000" stroke-width="3" stroke-miterlimit="10" x1="341.5" y1="441" x2="341.5" y2="34"/>
	<line fill="none" stroke="#000000" stroke-width="3" stroke-miterlimit="10" x1="305.5" y1="441" x2="305.5" y2="34"/>
	<line fill="none" stroke="#000000" stroke-width="3" stroke-miterlimit="10" x1="268.5" y1="441" x2="268.5" y2="34"/>
	<line fill="none" stroke="#000000" stroke-width="3" stroke-miterlimit="10" x1="231.5" y1="441" x2="231.5" y2="34"/>
	<line fill="none" stroke="#000000" stroke-width="3" stroke-miterlimit="10" x1="193.5" y1="441" x2="193.5" y2="34"/>
	<line fill="none" stroke="#000000" stroke-width="3" stroke-miterlimit="10" x1="157.5" y1="441" x2="157.5" y2="34"/>
	<line fill="none" stroke="#000000" stroke-width="3" stroke-miterlimit="10" x1="120.5" y1="441" x2="120.5" y2="34"/>
	<line fill="none" stroke="#000000" stroke-width="3" stroke-miterlimit="10" x1="83.5" y1="441" x2="83.5" y2="34"/>
</g>
</svg>
