<?xml version="1.0" encoding="utf-8"?>
<!-- Generator: Adobe Illustrator 16.0.0, SVG Export Plug-In . SVG Version: 6.00 Build 0)  -->
<!DOCTYPE svg PUBLIC "-//W3C//DTD SVG 1.1//EN" "http://www.w3.org/Graphics/SVG/1.1/DTD/svg11.dtd">
<svg version="1.1" id="Layer_6" xmlns="http://www.w3.org/2000/svg" xmlns:xlink="http://www.w3.org/1999/xlink" x="0px" y="0px"
	 width="500px" height="500px" viewBox="20 20 480 480" enable-background="new 0 0 500 500" xml:space="preserve">
<g>
	<rect x="50" y="62" width="400" height="377"/>
	<rect x="90" y="135" fill="#FFFFFF" width="320" height="230"/>
	<rect x="50" y="135" fill="#FFFFFF" width="25" height="230"/>
	<rect x="427" y="135" fill="#FFFFFF" width="23" height="230"/>
	<path fill="#FFFFFF" d="M437,110.436c0,3.805-3.371,6.564-7.529,6.564h-9.941c-4.158,0-7.529-2.759-7.529-6.564V87.614
		c0-3.805,3.371-6.614,7.529-6.614h9.941c4.158,0,7.529,2.809,7.529,6.614V110.436z"/>
	<path fill="#FFFFFF" d="M387,110.436c0,3.805-3.371,6.564-7.529,6.564h-9.941c-4.158,0-7.529-2.759-7.529-6.564V87.614
		c0-3.805,3.371-6.614,7.529-6.614h9.941c4.158,0,7.529,2.809,7.529,6.614V110.436z"/>
	<path fill="#FFFFFF" d="M337,110.436c0,3.805-3.371,6.564-7.529,6.564h-9.941c-4.158,0-7.529-2.759-7.529-6.564V87.614
		c0-3.805,3.371-6.614,7.529-6.614h9.941c4.158,0,7.529,2.809,7.529,6.614V110.436z"/>
	<path fill="#FFFFFF" d="M287,110.436c0,3.805-3.371,6.564-7.529,6.564h-9.941c-4.158,0-7.529-2.759-7.529-6.564V87.614
		c0-3.805,3.371-6.614,7.529-6.614h9.941c4.158,0,7.529,2.809,7.529,6.614V110.436z"/>
	<path fill="#FFFFFF" d="M237,110.436c0,3.805-3.371,6.564-7.529,6.564h-9.941c-4.158,0-7.529-2.759-7.529-6.564V87.614
		c0-3.805,3.371-6.614,7.529-6.614h9.941c4.158,0,7.529,2.809,7.529,6.614V110.436z"/>
	<path fill="#FFFFFF" d="M187,110.436c0,3.805-3.371,6.564-7.529,6.564h-9.941c-4.158,0-7.529-2.759-7.529-6.564V87.614
		c0-3.805,3.371-6.614,7.529-6.614h9.941c4.158,0,7.529,2.809,7.529,6.614V110.436z"/>
	<path fill="#FFFFFF" d="M137,110.436c0,3.805-3.371,6.564-7.529,6.564h-9.941c-4.158,0-7.529-2.759-7.529-6.564V87.614
		c0-3.805,3.371-6.614,7.529-6.614h9.941c4.158,0,7.529,2.809,7.529,6.614V110.436z"/>
	<path fill="#FFFFFF" d="M87,110.436c0,3.805-3.371,6.564-7.529,6.564h-9.941c-4.158,0-7.529-2.759-7.529-6.564V87.614
		C62,83.809,65.371,81,69.529,81h9.941C83.629,81,87,83.809,87,87.614V110.436z"/>
	<path fill="#FFFFFF" d="M437,410.557c0,3.804-3.371,7.443-7.529,7.443h-9.941c-4.158,0-7.529-3.64-7.529-7.443v-22.822
		c0-3.805,3.371-6.734,7.529-6.734h9.941c4.158,0,7.529,2.93,7.529,6.734V410.557z"/>
	<path fill="#FFFFFF" d="M387,410.557c0,3.804-3.371,7.443-7.529,7.443h-9.941c-4.158,0-7.529-3.64-7.529-7.443v-22.822
		c0-3.805,3.371-6.734,7.529-6.734h9.941c4.158,0,7.529,2.93,7.529,6.734V410.557z"/>
	<path fill="#FFFFFF" d="M337,410.557c0,3.804-3.371,7.443-7.529,7.443h-9.941c-4.158,0-7.529-3.64-7.529-7.443v-22.822
		c0-3.805,3.371-6.734,7.529-6.734h9.941c4.158,0,7.529,2.93,7.529,6.734V410.557z"/>
	<path fill="#FFFFFF" d="M287,410.557c0,3.804-3.371,7.443-7.529,7.443h-9.941c-4.158,0-7.529-3.64-7.529-7.443v-22.822
		c0-3.805,3.371-6.734,7.529-6.734h9.941c4.158,0,7.529,2.93,7.529,6.734V410.557z"/>
	<path fill="#FFFFFF" d="M237,410.557c0,3.804-3.371,7.443-7.529,7.443h-9.941c-4.158,0-7.529-3.64-7.529-7.443v-22.822
		c0-3.805,3.371-6.734,7.529-6.734h9.941c4.158,0,7.529,2.93,7.529,6.734V410.557z"/>
	<path fill="#FFFFFF" d="M187,410.557c0,3.804-3.371,7.443-7.529,7.443h-9.941c-4.158,0-7.529-3.64-7.529-7.443v-22.822
		c0-3.805,3.371-6.734,7.529-6.734h9.941c4.158,0,7.529,2.93,7.529,6.734V410.557z"/>
	<path fill="#FFFFFF" d="M137,410.557c0,3.804-3.371,7.443-7.529,7.443h-9.941c-4.158,0-7.529-3.64-7.529-7.443v-22.822
		c0-3.805,3.371-6.734,7.529-6.734h9.941c4.158,0,7.529,2.93,7.529,6.734V410.557z"/>
	<path fill="#FFFFFF" d="M87,410.557c0,3.804-3.371,7.443-7.529,7.443h-9.941c-4.158,0-7.529-3.64-7.529-7.443v-22.822
		c0-3.805,3.371-6.734,7.529-6.734h9.941c4.158,0,7.529,2.93,7.529,6.734V410.557z"/>
	
		<path fill="none" stroke="#000000" stroke-width="3" stroke-linecap="round" stroke-linejoin="round" stroke-miterlimit="10" stroke-dasharray="1,8" d="
		M99.229,168.727c0,0,62.259,33.909,98.391,165.097c0,0,29.462-125.073,96.724-125.073c16.703,0,30.8,8.329,42.556,20.851"/>
	
		<circle stroke="#000000" stroke-width="3" stroke-linecap="round" stroke-linejoin="round" stroke-miterlimit="10" cx="357.159" cy="253.776" r="27.852"/>
	
		<circle fill="none" stroke="#000000" stroke-width="3" stroke-linecap="round" stroke-linejoin="round" stroke-miterlimit="10" cx="124.8" cy="189.294" r="27.852"/>
	
		<ellipse transform="matrix(0.8888 -0.4583 0.4583 0.8888 -93.4241 99.5879)" fill="none" stroke="#000000" stroke-width="3" stroke-linecap="round" stroke-linejoin="round" stroke-miterlimit="10" cx="158.517" cy="242.321" rx="23.885" ry="29.485"/>
	
		<ellipse transform="matrix(0.9782 -0.2075 0.2075 0.9782 -57.0876 44.9498)" fill="none" stroke="#000000" stroke-width="3" stroke-linecap="round" stroke-linejoin="round" stroke-miterlimit="10" cx="185.734" cy="294.615" rx="19.732" ry="30.823"/>
	
		<ellipse fill="none" stroke="#000000" stroke-width="3" stroke-linecap="round" stroke-linejoin="round" stroke-miterlimit="10" cx="197.065" cy="325.515" rx="37.356" ry="15.038"/>
	
		<ellipse transform="matrix(0.9067 0.4217 -0.4217 0.9067 141.0132 -63.2813)" fill="none" stroke="#000000" stroke-width="3" stroke-linecap="round" stroke-linejoin="round" stroke-miterlimit="10" cx="213.572" cy="287.16" rx="21.966" ry="32.724"/>
	
		<ellipse transform="matrix(0.7634 0.6459 -0.6459 0.7634 215.1537 -92.9247)" fill="none" stroke="#000000" stroke-width="3" stroke-linecap="round" stroke-linejoin="round" stroke-miterlimit="10" cx="234.421" cy="247.227" rx="25.72" ry="30.607"/>
	
		<circle fill="none" stroke="#000000" stroke-width="3" stroke-linecap="round" stroke-linejoin="round" stroke-miterlimit="10" cx="294.9" cy="209.306" r="27.851"/>
	
		<circle fill="none" stroke="#000000" stroke-width="3" stroke-linecap="round" stroke-linejoin="round" stroke-miterlimit="10" cx="277.112" cy="212.641" r="27.852"/>
	
		<circle fill="none" stroke="#000000" stroke-width="3" stroke-linecap="round" stroke-linejoin="round" stroke-miterlimit="10" cx="314.912" cy="215.977" r="27.851"/>
	
		<circle fill="none" stroke="#000000" stroke-width="3" stroke-linecap="round" stroke-linejoin="round" stroke-miterlimit="10" cx="259.323" cy="221.535" r="27.852"/>
	
		<circle fill="none" stroke="#000000" stroke-width="3" stroke-linecap="round" stroke-linejoin="round" stroke-miterlimit="10" cx="340.482" cy="231.541" r="27.852"/>
	
		<line fill="none" stroke="#000000" stroke-width="2" stroke-linecap="round" stroke-linejoin="round" stroke-miterlimit="10" x1="97" y1="334" x2="399" y2="334"/>
</g>
</svg>
