<?xml version="1.0" encoding="utf-8"?>
<!-- Generator: Adobe Illustrator 16.0.0, SVG Export Plug-In . SVG Version: 6.00 Build 0)  -->
<!DOCTYPE svg PUBLIC "-//W3C//DTD SVG 1.1//EN" "http://www.w3.org/Graphics/SVG/1.1/DTD/svg11.dtd">
<svg version="1.1" xmlns="http://www.w3.org/2000/svg" xmlns:xlink="http://www.w3.org/1999/xlink" x="0px" y="0px" width="500px"
	 height="500px" viewBox="80 80 380 380" enable-background="new 0 0 500 500" xml:space="preserve">
<g id="Layer_1">
	<g>
		<rect x="98" y="102" width="300" height="300"/>
	</g>
</g>
<g id="Layer_6">
	<g>
		<g>
			<path fill="none" stroke="#000000" stroke-miterlimit="10" d="M111,68.5"/>
		</g>
	</g>
</g>
<g id="Layer_2">
	<rect x="138" y="138" fill="#FFFFFF" width="224" height="224"/>
</g>
<g id="Layer_3">
	<path d="M268.7,179.089c-2.507-4.722-6.857-11.422-18.7-11.422c-11.843,0-16.193,6.701-18.7,11.422
		c-7.626,14.365,9.973,50.911,9.973,50.911h17.453C258.727,230,276.326,193.454,268.7,179.089z"/>
	<path d="M231.3,280.912c2.506,4.721,6.856,11.421,18.7,11.421c11.843,0,16.193-6.7,18.7-11.421
		c7.626-14.365-9.974-50.912-9.974-50.912h-17.453C241.273,230,223.674,266.547,231.3,280.912z"/>
	<path d="M300.912,248.7c4.721-2.506,11.422-6.856,11.422-18.7s-6.701-16.193-11.422-18.7c-14.365-7.626-50.912,9.973-50.912,9.973
		v17.453C250,238.727,286.547,256.326,300.912,248.7z"/>
	<path d="M199.089,211.3c-4.722,2.506-11.422,6.856-11.422,18.7s6.701,16.193,11.422,18.7c14.365,7.626,50.911-9.973,50.911-9.973
		v-17.453C250,221.273,213.454,203.674,199.089,211.3z"/>
	<path d="M227.223,180.777c-5.111-1.566-12.925-3.229-21.3,5.146c-8.375,8.375-6.712,16.189-5.146,21.3
		c4.765,15.55,43.052,28.948,43.052,28.948l12.342-12.343C256.171,223.829,242.773,185.542,227.223,180.777z"/>
	<path d="M272.777,279.223c5.111,1.565,12.924,3.229,21.299-5.146c8.376-8.375,6.712-16.188,5.146-21.299
		c-4.765-15.55-43.052-28.949-43.052-28.949l-12.342,12.343C243.829,236.171,257.227,274.458,272.777,279.223z"/>
	<path d="M299.223,207.223c1.565-5.111,3.229-12.925-5.146-21.3c-8.375-8.375-16.188-6.712-21.299-5.146
		c-15.551,4.765-28.948,43.051-28.948,43.051l12.341,12.343C256.17,236.171,294.458,222.773,299.223,207.223z"/>
	<path d="M200.777,252.777c-1.566,5.111-3.229,12.924,5.146,21.299c8.375,8.376,16.189,6.712,21.3,5.146
		c15.55-4.765,28.947-43.051,28.947-43.051l-12.341-12.343C243.829,223.829,205.542,237.227,200.777,252.777z"/>
</g>
<g id="Layer_4">
	<circle fill="#FFFFFF" cx="250" cy="230" r="27.066"/>
</g>
<g id="Layer_5">
	<line fill="none" stroke="#000000" stroke-width="10" stroke-miterlimit="10" x1="250" y1="268" x2="250" y2="369"/>
	<path d="M250.354,365.559c0,0-25.752-1.771-42.728-18.748c-16.976-16.976-18.748-42.727-18.748-42.727s25.751,1.771,42.728,18.747
		C248.581,339.807,250.354,365.559,250.354,365.559z"/>
	<path d="M249.878,365.559c0,0,25.752-1.771,42.729-18.748c16.976-16.976,18.747-42.727,18.747-42.727s-25.751,1.771-42.728,18.747
		C251.65,339.807,249.878,365.559,249.878,365.559z"/>
</g>
</svg>
