<?xml version="1.0" encoding="utf-8"?>
<!-- Generator: Adobe Illustrator 16.0.0, SVG Export Plug-In . SVG Version: 6.00 Build 0)  -->
<!DOCTYPE svg PUBLIC "-//W3C//DTD SVG 1.1//EN" "http://www.w3.org/Graphics/SVG/1.1/DTD/svg11.dtd">
<svg version="1.1" id="Layer_2" xmlns="http://www.w3.org/2000/svg" xmlns:xlink="http://www.w3.org/1999/xlink" x="0px" y="0px"
	 width="1000px" height="1000px" viewBox="0 0 1000 1000" enable-background="new 0 0 1000 1000" xml:space="preserve">
<rect x="441.707" y="-217.707" transform="matrix(0.7071 -0.7071 0.7071 0.7071 -209.8138 500.0506)" fill="#E3FCF3" width="114" height="1442"/>
<rect x="521.611" y="-297.61" transform="matrix(0.7071 -0.7071 0.7071 0.7071 -129.9119 533.1432)" fill="#D8F1E9" width="114" height="1442"/>
<rect x="601.513" y="-377.513" transform="matrix(0.7071 -0.7071 0.7071 0.7071 -50.0078 566.2443)" fill="#CFE2DB" width="114" height="1442"/>
<rect x="681.417" y="-457.416" transform="matrix(0.7071 -0.7071 0.7071 0.7071 29.8947 599.3411)" fill="#B4D3C6" width="113.999" height="1442"/>
<rect x="761.32" y="-537.32" transform="matrix(0.7071 -0.7071 0.7071 0.7071 109.7987 632.4382)" fill="#8FBCA9" width="114" height="1442"/>
<rect x="841.223" y="-617.222" transform="matrix(0.7071 -0.7071 0.7071 0.7071 189.701 665.5349)" fill="#74AE95" width="113.999" height="1442"/>
<rect x="921.126" y="-697.126" transform="matrix(0.7071 -0.7071 0.7071 0.7071 269.6046 698.632)" fill="#63917B" width="114" height="1442"/>
<rect x="-39.125" y="263.125" transform="matrix(0.7071 -0.7071 0.7071 0.7071 -690.6464 300.8831)" fill="#63917B" width="114" height="1442"/>
<rect x="40.778" y="183.223" transform="matrix(0.7071 -0.7071 0.7071 0.7071 -610.7438 333.9798)" fill="#74AE95" width="113.999" height="1442"/>
<rect x="120.681" y="103.319" transform="matrix(0.7071 -0.7071 0.7071 0.7071 -530.84 367.0771)" fill="#8FBCA9" width="114" height="1442"/>
<rect x="200.584" y="23.417" transform="matrix(0.7071 -0.7071 0.7071 0.7071 -450.9354 400.1695)" fill="#B4D3C6" width="114" height="1442"/>
<rect x="281.194" y="-57.194" transform="matrix(0.7071 -0.7071 0.7071 0.7071 -370.3271 433.5637)" fill="#CFE2DB" width="114" height="1442"/>
<rect x="361.804" y="-137.804" transform="matrix(0.7071 -0.7071 0.7071 0.7071 -289.7169 466.9536)" fill="#D8F1E9" width="114" height="1442"/>
</svg>
