<?xml version="1.0" encoding="utf-8"?>
<!-- Generator: Adobe Illustrator 16.0.0, SVG Export Plug-In . SVG Version: 6.00 Build 0)  -->
<!DOCTYPE svg PUBLIC "-//W3C//DTD SVG 1.1//EN" "http://www.w3.org/Graphics/SVG/1.1/DTD/svg11.dtd">
<svg version="1.1" xmlns="http://www.w3.org/2000/svg" xmlns:xlink="http://www.w3.org/1999/xlink" x="0px" y="0px" width="1000px"
	 height="1000px" viewBox="0 0 1000 1000" enable-background="new 0 0 1000 1000" xml:space="preserve">
<g id="Layer_2">
	
		<rect x="441.701" y="-217.7" transform="matrix(-0.7071 0.7071 -0.7071 -0.7071 1207.2169 506.5408)" fill="#E3FCF3" width="113.999" height="1441.986"/>
	
		<rect x="521.603" y="-297.607" transform="matrix(-0.7071 0.7071 -0.7071 -0.7071 1287.1163 313.6338)" fill="#D8F1E9" width="113.999" height="1441.985"/>
	
		<rect x="601.507" y="-377.503" transform="matrix(-0.7071 0.7071 -0.7071 -0.7071 1367.0244 120.739)" fill="#CFE2DB" width="113.999" height="1441.986"/>
	
		<rect x="681.41" y="-457.406" transform="matrix(-0.7071 0.7071 -0.7071 -0.7071 1446.928 -72.1607)" fill="#B4D3C6" width="113.998" height="1441.985"/>
	
		<rect x="761.313" y="-537.309" transform="matrix(-0.7071 0.7071 -0.7071 -0.7071 1526.8329 -265.064)" fill="#8FBCA9" width="113.999" height="1441.985"/>
	
		<rect x="841.216" y="-617.21" transform="matrix(-0.7071 0.7071 -0.7071 -0.7071 1606.7371 -457.9629)" fill="#74AE95" width="113.999" height="1441.986"/>
	
		<rect x="921.119" y="-697.112" transform="matrix(-0.7071 0.7071 -0.7071 -0.7071 1686.6389 -650.868)" fill="#63917B" width="113.999" height="1441.985"/>
	
		<rect x="-39.132" y="263.125" transform="matrix(-0.7071 0.7071 -0.7071 -0.7071 726.3786 1667.3604)" fill="#63917B" width="113.999" height="1441.986"/>
	
		<rect x="40.772" y="183.224" transform="matrix(-0.7071 0.7071 -0.7071 -0.7071 806.2875 1474.4575)" fill="#74AE95" width="113.998" height="1441.987"/>
	
		<rect x="120.675" y="103.322" transform="matrix(-0.7071 0.7071 -0.7071 -0.7071 886.1871 1281.5586)" fill="#8FBCA9" width="113.999" height="1441.986"/>
	
		<rect x="200.58" y="23.416" transform="matrix(-0.7071 0.7071 -0.7071 -0.7071 966.0922 1088.6499)" fill="#B4D3C6" width="113.999" height="1441.986"/>
	
		<rect x="281.188" y="-57.189" transform="matrix(-0.7071 0.7071 -0.7071 -0.7071 1046.7017 894.0499)" fill="#CFE2DB" width="113.999" height="1441.986"/>
	
		<rect x="361.798" y="-137.798" transform="matrix(-0.7071 0.7071 -0.7071 -0.7071 1127.3127 699.4424)" fill="#D8F1E9" width="113.999" height="1441.986"/>
</g>
<g id="Layer_3" opacity="0.5">
	<rect x="-51.423" y="-46.831" fill="#E1FFE6" width="1100.248" height="1100.248"/>
</g>
</svg>
